<svg xmlns="http://www.w3.org/2000/svg" fill="currentColor" viewBox="0 0 256 256"><path transform="matrix(0.25 0 0 -0.25 0 240)" d="M160 592h120.24c20.369-56.401 73.442-95.987 135.76-95.987s115.391 39.586 135.443 94.985l0.317 1.003h312.24c26.51 0 48 21.49 48 48s-21.49 48-48 48v0h-312.24c-20.369 56.401-73.442 95.987-135.76 95.987s-115.391-39.586-135.443-94.985l-0.317-1.003h-120.24c-26.51 0-48-21.49-48-48s21.49-48 48-48v0zM416 688c26.51 0 48-21.49 48-48s-21.49-48-48-48c-26.51 0-48 21.49-48 48v0c0 26.51 21.49 48 48 48v0zM864 304h-56.24c-20.369 56.401-73.442 95.987-135.76 95.987s-115.391-39.586-135.443-94.985l-0.317-1.003h-376.24c-26.51 0-48-21.49-48-48s21.49-48 48-48v0h376.24c20.369-56.401 73.442-95.987 135.76-95.987s115.391 39.586 135.443 94.985l0.317 1.003h56.24c26.51 0 48 21.49 48 48s-21.49 48-48 48v0zM672 208c-26.51 0-48 21.49-48 48s21.49 48 48 48c26.51 0 48-21.49 48-48v0c0-26.51-21.49-48-48-48v0z"/></svg>
